# xmcd
#
# Track frame offsets:
#	150
#	13313
#	28445
#	41483
#	54763
#	70863
#	88385
#	104588
#	121403
#	140193
#	152880
#	167165
#
# Disc length: 2409 seconds
#
# Revision: 3
# Processed by: cddbd v1.5.2PL0 Copyright (c) Steve Scherf et al.
# Submitted via: EZCDAudioConverter 8.0.2.1
#
DISCID=b109670c
DTITLE=COPACABANA VAT - SERTANEJO 88 [CD 99.014) VAT COPACABANA - 1987
DYEAR=1987
DGENRE=SERTANEJO
TTITLE0=TRIO PARA DURA - AS ANDORINHAS (BY GILMAR SINISTRO)
TTITLE1=CHITÃOZINHO and XORORÓ - SE DEUS ME OUVISSE (BY GILMAR SINISTRO)
TTITLE2=JOÃO MINEIRO and MARCIANO - TELEFONE MAIS (BY GILMAR SINISTRO)
TTITLE3=GILBERTO and GILMAR - SÓ MAIS UMA VEZ (BY GILMAR SINISTRO)
TTITLE4=DONIZETE - ONDE ANDARÁ (BY GILMAR SINISTRO)
TTITLE5=JOÃO RENNES and RENY - AMOR PELA METADE (BY GILMAR SINISTRO)
TTITLE6=JAIR RODRIGUES - SONHOS COLORIDOS (PART.ESP.AS MARCIANAS) (BY GILMAR S
TTITLE6=INISTRO)
TTITLE7=PEÃO CARREIRO and ZÉ PAULO - PORTA DO MUNDO (BY GILMAR SINISTRO)
TTITLE8=AS MARCIANAS - NOSSA MELODIA PREFERIDA (BY GILMAR SINISTRO)
TTITLE9=VALDERI and MIZAEL - JACARANDÁ (BY GILMAR SINISTRO)
TTITLE10=IRIDIO and IRINEU - MEU POÇO JÁ SECOU (BY GILMAR SINISTRO)
TTITLE11=TEODORO and SAMPAIO - PINGA NI MIM (BY GILMAR SINISTRO)
EXTD=
EXTT0=
EXTT1=
EXTT2=
EXTT3=
EXTT4=
EXTT5=
EXTT6=
EXTT7=
EXTT8=
EXTT9=
EXTT10=
EXTT11=
PLAYORDER=
